<svg width="576" height="197" viewBox="0 0 576 197" fill="none" xmlns="http://www.w3.org/2000/svg">
<path d="M182.067 80.5333C186.533 67.1333 185 52.4667 177.867 40.2667C167.133 21.6 145.533 12 124.467 16.4667C115.067 5.93332 101.6 -0.0666818 87.4667 -1.48668e-05C65.9334 -1.48668e-05 46.8001 13.8667 40.1334 34.3333C26.2668 37.2 14.3334 45.8667 7.33342 58.1333C-3.46659 76.8 -0.999928 100.267 13.4668 116.267C9.00008 129.667 10.5334 144.333 17.6668 156.467C28.4001 175.2 50.0001 184.8 71.1333 180.333C80.4667 190.867 93.9334 196.933 108.067 196.867C129.6 196.867 148.733 183 155.4 162.533C169.267 159.667 181.2 151 188.133 138.733C199 120.067 196.533 96.6 182.067 80.6V80.5333ZM166.733 46.7333C171 54.2 172.6 62.9333 171.133 71.4C170.867 71.2 170.333 70.9333 170 70.7333L130.8 48.0667C128.8 46.9333 126.333 46.9333 124.333 48.0667L78.4 74.6V55.1333L116.333 33.2C134 23 156.533 29.0667 166.733 46.7333ZM78.4 87.2L97.7334 76L117.067 87.2V109.533L97.7334 120.733L78.4 109.533V87.2ZM87.4 12.8667C96.0667 12.8667 104.4 15.8667 111.067 21.4C110.8 21.5333 110.267 21.8667 109.867 22.0667L70.6667 44.6667C68.6667 45.8 67.4667 47.9333 67.4667 50.2667V103.333L50.6001 93.6V49.7333C50.6001 29.3333 67.0668 12.8667 87.4667 12.8L87.4 12.8667ZM18.5334 64.6C22.8668 57.1333 29.6001 51.4 37.7334 48.4V95C37.7334 97.3333 38.9334 99.4 40.9334 100.6L86.8 127.067L69.8667 136.867L32.0001 115C14.4001 104.8 8.33342 82.2667 18.5334 64.6ZM28.8668 150.133C24.5334 142.733 23.0001 133.933 24.4668 125.467C24.7334 125.667 25.2668 125.933 25.6001 126.133L64.8001 148.8C66.8001 149.933 69.2667 149.933 71.2667 148.8L117.133 122.267V141.733L79.2 163.6C61.5334 173.733 39.0001 167.733 28.8001 150.133H28.8668ZM108.133 184C99.5334 184 91.1334 181 84.5333 175.467C84.8 175.333 85.4 175 85.7334 174.8L124.933 152.2C126.933 151.067 128.2 148.933 128.133 146.6V93.6L145 103.333V147.133C145 167.533 128.467 184.067 108.133 184.067V184ZM177.067 132.267C172.733 139.733 165.933 145.467 157.867 148.4V101.8C157.867 99.4667 156.667 97.3333 154.667 96.2L108.733 69.6667L125.6 59.9333L163.533 81.8C181.2 92 187.2 114.533 177 132.2L177.067 132.267Z" fill="black"/>
<path d="M239.919 48.4849L268.941 136.259H270.084L299.052 48.4849H321.268L281.955 160H257.016L217.757 48.4849H239.919ZM335.085 160V76.3633H354.796V160H335.085ZM344.995 64.4934C341.873 64.4934 339.187 63.4588 336.936 61.3897C334.685 59.2843 333.56 56.7613 333.56 53.821C333.56 50.8444 334.685 48.3215 336.936 46.2523C339.187 44.1469 341.873 43.0942 344.995 43.0942C348.153 43.0942 350.839 44.1469 353.053 46.2523C355.304 48.3215 356.429 50.8444 356.429 53.821C356.429 56.7613 355.304 59.2843 353.053 61.3897C350.839 63.4588 348.153 64.4934 344.995 64.4934ZM441.169 98.4707L423.2 100.431C422.691 98.616 421.802 96.91 420.532 95.3127C419.297 93.7153 417.628 92.4267 415.522 91.4467C413.417 90.4667 410.839 89.976 407.79 89.976C403.688 89.976 400.24 90.866 397.445 92.6447C394.686 94.4233 393.325 96.728 393.361 99.5593C393.325 101.992 394.214 103.97 396.029 105.495C397.88 107.019 400.929 108.272 405.177 109.252L419.443 112.301C427.356 114.007 433.237 116.711 437.085 120.414C440.969 124.117 442.929 128.963 442.965 134.953C442.929 140.216 441.387 144.863 438.337 148.892C435.324 152.885 431.131 156.007 425.759 158.257C420.387 160.508 414.215 161.633 407.246 161.633C397.009 161.633 388.769 159.492 382.525 155.208C376.281 150.889 372.561 144.881 371.363 137.185L390.584 135.334C391.455 139.109 393.307 141.959 396.138 143.883C398.969 145.807 402.654 146.769 407.191 146.769C411.874 146.769 415.631 145.807 418.463 143.883C421.331 141.959 422.764 139.581 422.764 136.749C422.764 134.354 421.839 132.375 419.987 130.815C418.172 129.253 415.341 128.055 411.493 127.221L397.227 124.226C389.205 122.556 383.269 119.743 379.421 115.786C375.573 111.793 373.668 106.747 373.704 100.649C373.668 95.494 375.065 91.0293 377.897 87.254C380.765 83.442 384.739 80.502 389.821 78.4327C394.94 76.3273 400.839 75.2747 407.518 75.2747C417.319 75.2747 425.033 77.362 430.659 81.5367C436.323 85.7113 439.825 91.356 441.169 98.4707ZM459.219 160V76.3633H478.93V160H459.219ZM469.129 64.4934C466.007 64.4934 463.321 63.4588 461.07 61.3897C458.82 59.2843 457.695 56.7613 457.695 53.821C457.695 50.8444 458.82 48.3215 461.07 46.2523C463.321 44.1469 466.007 43.0942 469.129 43.0942C472.287 43.0942 474.973 44.1469 477.188 46.2523C479.439 48.3215 480.564 50.8444 480.564 53.821C480.564 56.7613 479.439 59.2843 477.188 61.3897C474.973 63.4588 472.287 64.4934 469.129 64.4934ZM535.681 161.633C527.514 161.633 520.435 159.837 514.446 156.243C508.456 152.649 503.809 147.621 500.506 141.16C497.239 134.699 495.606 127.148 495.606 118.509C495.606 109.869 497.239 102.301 500.506 95.8027C503.809 89.3047 508.456 84.2587 514.446 80.6653C520.435 77.0713 527.514 75.2747 535.681 75.2747C543.849 75.2747 550.928 77.0713 556.917 80.6653C562.907 84.2587 567.535 89.3047 570.802 95.8027C574.105 102.301 575.757 109.869 575.757 118.509C575.757 127.148 574.105 134.699 570.802 141.16C567.535 147.621 562.907 152.649 556.917 156.243C550.928 159.837 543.849 161.633 535.681 161.633ZM535.791 145.843C540.219 145.843 543.922 144.627 546.898 142.195C549.875 139.726 552.089 136.423 553.541 132.285C555.029 128.146 555.774 123.536 555.774 118.454C555.774 113.336 555.029 108.707 553.541 104.569C552.089 100.395 549.875 97.0733 546.898 94.6047C543.922 92.136 540.219 90.902 535.791 90.902C531.253 90.902 527.477 92.136 524.465 94.6047C521.488 97.0733 519.255 100.395 517.767 104.569C516.315 108.707 515.589 113.336 515.589 118.454C515.589 123.536 516.315 128.146 517.767 132.285C519.255 136.423 521.488 139.726 524.465 142.195C527.477 144.627 531.253 145.843 535.791 145.843Z" fill="black"/>
</svg>